<svg width="196" height="46" viewBox="0 0 196 46" fill="none" xmlns="http://www.w3.org/2000/svg">
<path d="M13.288 31.96C13.288 34.616 12.808 36.808 11.848 38.536C10.92 40.264 9.67199 41.608 8.10398 42.568C6.56798 43.56 4.72798 44.408 2.58398 45.112L0.471985 39.544C1.87998 39 2.93598 38.376 3.63999 37.672C4.34399 36.968 4.80799 36.152 5.03199 35.224C5.28799 34.296 5.41599 33.112 5.41599 31.672V3.736H13.288V31.96Z" fill="black"/>
<path d="M30.2504 10.696C34.1544 10.696 37.2104 11.896 39.4184 14.296C41.6264 16.664 42.7304 19.992 42.7304 24.28C42.7304 27 42.2184 29.384 41.1944 31.432C40.2024 33.448 38.7624 35.016 36.8744 36.136C35.0184 37.256 32.8104 37.816 30.2504 37.816C26.3784 37.816 23.3224 36.632 21.0824 34.264C18.8744 31.864 17.7704 28.52 17.7704 24.232C17.7704 21.512 18.2664 19.144 19.2584 17.128C20.2824 15.08 21.7224 13.496 23.5784 12.376C25.4664 11.256 27.6904 10.696 30.2504 10.696ZM30.2504 16.264C28.7144 16.264 27.5624 16.92 26.7944 18.232C26.0264 19.512 25.6424 21.512 25.6424 24.232C25.6424 27.016 26.0104 29.048 26.7464 30.328C27.5144 31.608 28.6824 32.248 30.2504 32.248C31.7864 32.248 32.9384 31.608 33.7064 30.328C34.4744 29.016 34.8584 27 34.8584 24.28C34.8584 21.496 34.4744 19.464 33.7064 18.184C32.9704 16.904 31.8184 16.264 30.2504 16.264Z" fill="black"/>
<path d="M62.1696 10.696C64.3776 10.696 66.1056 11.368 67.3536 12.712C68.6016 14.056 69.2256 15.944 69.2256 18.376V37H61.6416V19.672C61.6416 18.392 61.4336 17.512 61.0176 17.032C60.6336 16.52 60.0416 16.264 59.2416 16.264C57.7056 16.264 56.2336 17.368 54.8256 19.576V37H47.2416V11.512H53.8656L54.3936 14.536C55.4816 13.256 56.6496 12.296 57.8976 11.656C59.1776 11.016 60.6016 10.696 62.1696 10.696Z" fill="black"/>
<path d="M95.2007 29.608C95.2007 30.568 95.3287 31.272 95.5847 31.72C95.8727 32.168 96.3207 32.504 96.9287 32.728L95.3447 37.672C93.7767 37.544 92.4967 37.208 91.5047 36.664C90.5127 36.088 89.7447 35.192 89.2007 33.976C87.5367 36.536 84.9767 37.816 81.5207 37.816C78.9927 37.816 76.9767 37.08 75.4727 35.608C73.9687 34.136 73.2167 32.216 73.2167 29.848C73.2167 27.064 74.2407 24.936 76.2887 23.464C78.3367 21.992 81.2967 21.256 85.1687 21.256H87.7607V20.152C87.7607 18.648 87.4407 17.624 86.8007 17.08C86.1607 16.504 85.0407 16.216 83.4407 16.216C82.6087 16.216 81.6007 16.344 80.4167 16.6C79.2327 16.824 78.0167 17.144 76.7687 17.56L75.0407 12.568C76.6407 11.96 78.2727 11.496 79.9367 11.176C81.6327 10.856 83.2007 10.696 84.6407 10.696C88.2887 10.696 90.9607 11.448 92.6567 12.952C94.3527 14.456 95.2007 16.712 95.2007 19.72V29.608ZM83.7287 32.392C85.4567 32.392 86.8007 31.576 87.7607 29.944V25.432H85.8887C84.1607 25.432 82.8647 25.736 82.0007 26.344C81.1687 26.952 80.7527 27.896 80.7527 29.176C80.7527 30.2 81.0087 31 81.5207 31.576C82.0647 32.12 82.8007 32.392 83.7287 32.392Z" fill="black"/>
<path d="M117.226 35.8C116.298 36.44 115.21 36.936 113.962 37.288C112.746 37.64 111.53 37.816 110.314 37.816C104.746 37.784 101.962 34.712 101.962 28.6V16.792H98.3616V11.512H101.962V5.992L109.546 5.128V11.512H115.402L114.586 16.792H109.546V28.504C109.546 29.688 109.738 30.536 110.122 31.048C110.506 31.56 111.114 31.816 111.946 31.816C112.81 31.816 113.722 31.544 114.682 31L117.226 35.8Z" fill="black"/>
<path d="M134.685 10.696C136.893 10.696 138.621 11.368 139.869 12.712C141.117 14.056 141.741 15.944 141.741 18.376V37H134.157V19.672C134.157 18.392 133.949 17.512 133.533 17.032C133.117 16.52 132.525 16.264 131.757 16.264C130.221 16.264 128.749 17.352 127.341 19.528V37H119.757V1.384L127.341 0.615997V14.248C128.397 13.064 129.517 12.184 130.701 11.608C131.885 11 133.213 10.696 134.685 10.696Z" fill="black"/>
<path d="M167.716 29.608C167.716 30.568 167.844 31.272 168.1 31.72C168.388 32.168 168.836 32.504 169.444 32.728L167.86 37.672C166.292 37.544 165.012 37.208 164.02 36.664C163.028 36.088 162.26 35.192 161.716 33.976C160.052 36.536 157.492 37.816 154.036 37.816C151.508 37.816 149.492 37.08 147.988 35.608C146.484 34.136 145.732 32.216 145.732 29.848C145.732 27.064 146.756 24.936 148.804 23.464C150.852 21.992 153.812 21.256 157.684 21.256H160.276V20.152C160.276 18.648 159.956 17.624 159.316 17.08C158.676 16.504 157.556 16.216 155.956 16.216C155.124 16.216 154.116 16.344 152.932 16.6C151.748 16.824 150.532 17.144 149.284 17.56L147.556 12.568C149.156 11.96 150.788 11.496 152.452 11.176C154.148 10.856 155.716 10.696 157.156 10.696C160.804 10.696 163.476 11.448 165.172 12.952C166.868 14.456 167.716 16.712 167.716 19.72V29.608ZM156.244 32.392C157.972 32.392 159.316 31.576 160.276 29.944V25.432H158.404C156.676 25.432 155.38 25.736 154.516 26.344C153.684 26.952 153.268 27.896 153.268 29.176C153.268 30.2 153.524 31 154.036 31.576C154.58 32.12 155.316 32.392 156.244 32.392Z" fill="black"/>
<path d="M188.685 10.696C190.893 10.696 192.621 11.368 193.869 12.712C195.117 14.056 195.741 15.944 195.741 18.376V37H188.157V19.672C188.157 18.392 187.949 17.512 187.533 17.032C187.149 16.52 186.557 16.264 185.757 16.264C184.221 16.264 182.749 17.368 181.341 19.576V37H173.757V11.512H180.381L180.909 14.536C181.997 13.256 183.165 12.296 184.413 11.656C185.693 11.016 187.117 10.696 188.685 10.696Z" fill="black"/>
</svg>
